<?xml version="1.0" standalone="no"?><!DOCTYPE svg PUBLIC "-//W3C//DTD SVG 1.1//EN" "http://www.w3.org/Graphics/SVG/1.1/DTD/svg11.dtd"><svg t="1680768158005" class="icon" viewBox="0 0 1024 1024" version="1.1" xmlns="http://www.w3.org/2000/svg" p-id="3942" xmlns:xlink="http://www.w3.org/1999/xlink" width="200" height="200"><path d="M908.434286 689.005714c-69.485714 114.102857-194.56 189.44-337.92 189.44-217.965714 0-394.971429-177.005714-394.971429-395.702857 0-143.36 76.068571-268.434286 189.44-337.92-36.571429 60.708571-57.782857 130.925714-57.782857 206.262857 0 218.697143 177.005714 395.702857 395.702857 395.702857 75.337143 0 145.554286-21.211429 205.531429-57.782857zM881.371429 149.942857l13.165714 24.137143 24.137143 13.165714-24.137143 13.165715-13.165714 24.868571-13.165715-24.868571-24.137143-13.165715 24.137143-13.165714z" fill="#FFC931" p-id="3943"></path><path d="M637.805714 212.845714l9.508572 18.285715 18.285714 9.508571-18.285714 10.24-9.508572 18.285714-10.24-18.285714-17.554285-10.24 17.554285-9.508571z" fill="#FFC931" opacity=".8" p-id="3944"></path><path d="M798.72 329.874286l7.314286 13.165714 13.165714 7.314286-13.165714 7.314285-7.314286 13.897143-7.314286-13.897143-13.165714-7.314285 13.165714-7.314286z" fill="#FFC931" opacity=".9" p-id="3945"></path><path d="M731.428571 424.96c-5.12 0-9.508571 0-14.628571 0.731429-32.182857-85.577143-114.834286-147.017143-212.114286-147.017143-125.074286 0-226.742857 101.668571-226.742857 226.742857 0 8.777143 0.731429 17.554286 1.462857 26.331428-12.434286-2.925714-24.868571-4.388571-38.034285-4.388571-97.28 0-175.542857 78.262857-175.542858 175.542857s78.262857 175.542857 175.542858 175.542857h490.057142c125.074286 0 226.742857-101.668571 226.742858-226.742857s-101.668571-226.742857-226.742858-226.742857z" fill="#83d8ff" p-id="3946" data-spm-anchor-id="a313x.7781069.0.i33" class="selected"></path></svg>