<?xml version="1.0" standalone="no"?><!DOCTYPE svg PUBLIC "-//W3C//DTD SVG 1.1//EN" "http://www.w3.org/Graphics/SVG/1.1/DTD/svg11.dtd"><svg t="1680768211681" class="icon" viewBox="0 0 1024 1024" version="1.1" xmlns="http://www.w3.org/2000/svg" p-id="4790" xmlns:xlink="http://www.w3.org/1999/xlink" width="200" height="200"><path d="M871.862857 688.274286C802.377143 802.377143 677.302857 877.714286 533.942857 877.714286c-217.965714 0-394.971429-177.005714-394.971428-395.702857 0-143.36 76.068571-268.434286 189.44-337.92-36.571429 60.708571-57.782857 130.925714-57.782858 206.262857C270.628571 569.051429 447.634286 746.057143 666.331429 746.057143c75.337143 0 145.554286-21.211429 205.531428-57.782857zM844.8 149.211429l13.165714 24.137142 24.137143 13.165715-24.137143 13.165714-13.165714 24.137143-13.165714-24.137143-24.137143-13.165714 24.137143-13.165715z" fill="#FFC931" p-id="4791"></path><path d="M601.234286 212.114286l9.508571 18.285714 18.285714 9.508571-18.285714 10.24-9.508571 17.554286-10.24-17.554286-17.554286-10.24 17.554286-9.508571z" fill="#FFC931" opacity=".8" p-id="4792"></path><path d="M762.148571 329.142857l7.314286 13.165714 13.165714 7.314286-13.165714 7.314286-7.314286 13.165714-7.314285-13.165714-13.165715-7.314286 13.165715-7.314286z" fill="#FFC931" opacity=".9" p-id="4793"></path></svg>