<?xml version="1.0" standalone="no"?><!DOCTYPE svg PUBLIC "-//W3C//DTD SVG 1.1//EN" "http://www.w3.org/Graphics/SVG/1.1/DTD/svg11.dtd"><svg t="1680767756182" class="icon" viewBox="0 0 1024 1024" version="1.1" xmlns="http://www.w3.org/2000/svg" p-id="4801" xmlns:xlink="http://www.w3.org/1999/xlink" width="200" height="200"><path d="M109.714286 208.457143h804.571428c16.091429 0 29.257143-13.165714 29.257143-29.257143s-13.165714-29.257143-29.257143-29.257143H109.714286c-16.091429 0-29.257143 13.165714-29.257143 29.257143s13.165714 29.257143 29.257143 29.257143zM914.285714 371.565714H694.857143c-16.091429 0-29.257143 13.165714-29.257143 29.257143s13.165714 29.257143 29.257143 29.257143h219.428571c16.091429 0 29.257143-13.165714 29.257143-29.257143s-13.165714-29.257143-29.257143-29.257143zM109.714286 430.08h468.114285c16.091429 0 29.257143-13.165714 29.257143-29.257143s-13.165714-29.257143-29.257143-29.257143H109.714286c-16.091429 0-29.257143 13.165714-29.257143 29.257143s13.165714 29.257143 29.257143 29.257143zM914.285714 593.92H109.714286c-16.091429 0-29.257143 13.165714-29.257143 29.257143s13.165714 29.257143 29.257143 29.257143h804.571428c16.091429 0 29.257143-13.165714 29.257143-29.257143s-13.165714-29.257143-29.257143-29.257143zM914.285714 815.542857H446.171429c-16.091429 0-29.257143 13.165714-29.257143 29.257143s13.165714 29.257143 29.257143 29.257143h468.114285c16.091429 0 29.257143-13.165714 29.257143-29.257143s-13.165714-29.257143-29.257143-29.257143zM329.142857 815.542857H109.714286c-16.091429 0-29.257143 13.165714-29.257143 29.257143s13.165714 29.257143 29.257143 29.257143h219.428571c16.091429 0 29.257143-13.165714 29.257143-29.257143s-13.165714-29.257143-29.257143-29.257143z" fill="#83d8ff" p-id="4802"></path></svg>