<?xml version="1.0" standalone="no"?><!DOCTYPE svg PUBLIC "-//W3C//DTD SVG 1.1//EN" "http://www.w3.org/Graphics/SVG/1.1/DTD/svg11.dtd"><svg t="1680768165303" class="icon" viewBox="0 0 1024 1024" version="1.1" xmlns="http://www.w3.org/2000/svg" p-id="4155" xmlns:xlink="http://www.w3.org/1999/xlink" width="200" height="200"><path d="M731.428571 296.228571c-5.12 0-9.508571 0-14.628571 0.731429-32.182857-85.577143-114.834286-147.017143-212.114286-147.017143-125.074286 0-226.742857 101.668571-226.742857 226.742857 0 8.777143 0.731429 17.554286 1.462857 26.331429-12.434286-2.925714-24.868571-4.388571-38.034285-4.388572-97.28 0-175.542857 78.262857-175.542858 175.542858s78.262857 175.542857 175.542858 175.542857h490.057142c125.074286 0 226.742857-101.668571 226.742858-226.742857s-101.668571-226.742857-226.742858-226.742858z" fill="#83d8ff" p-id="4156"></path><path d="M365.714286 837.485714m-36.571429 0a36.571429 36.571429 0 1 0 73.142857 0 36.571429 36.571429 0 1 0-73.142857 0Z" fill="#83d8ff" p-id="4157"></path><path d="M512 837.485714m-36.571429 0a36.571429 36.571429 0 1 0 73.142858 0 36.571429 36.571429 0 1 0-73.142858 0Z" fill="#83d8ff" p-id="4158"></path><path d="M658.285714 837.485714m-36.571428 0a36.571429 36.571429 0 1 0 73.142857 0 36.571429 36.571429 0 1 0-73.142857 0Z" fill="#83d8ff" p-id="4159"></path></svg>