<?xml version="1.0" standalone="no"?><!DOCTYPE svg PUBLIC "-//W3C//DTD SVG 1.1//EN" "http://www.w3.org/Graphics/SVG/1.1/DTD/svg11.dtd"><svg t="1680767673336" class="icon" viewBox="0 0 1024 1024" version="1.1" xmlns="http://www.w3.org/2000/svg" p-id="3330" data-spm-anchor-id="a313x.7781069.0.i34" xmlns:xlink="http://www.w3.org/1999/xlink" width="200" height="200"><path d="M677.302857 582.217143h49.005714c46.08 0 84.114286-38.034286 84.114286-84.114286s-38.034286-84.114286-84.114286-84.114286c-10.24 0-18.285714 8.045714-18.285714 18.285715s8.045714 18.285714 18.285714 18.285714c26.331429 0 47.542857 21.211429 47.542858 47.542857s-21.211429 47.542857-47.542858 47.542857h-32.182857c4.388571-15.36 7.314286-31.451429 7.314286-47.542857 0-88.502857-71.68-160.182857-160.182857-160.182857h-10.24c-21.942857-59.977143-80.457143-103.131429-149.211429-103.131429-88.502857 0-160.182857 71.68-160.182857 160.182858 0 6.582857 0.731429 12.434286 0.731429 18.285714-8.777143-2.194286-17.554286-2.925714-27.062857-2.925714-68.022857 0-123.611429 55.588571-123.611429 123.611428s55.588571 123.611429 123.611429 123.611429H724.114286c26.331429 0 47.542857 21.211429 47.542857 47.542857s-21.211429 47.542857-47.542857 47.542857c-10.24 0-18.285714 8.045714-18.285715 18.285714s8.045714 18.285714 18.285715 18.285715c46.08 0 84.114286-38.034286 84.114285-84.114286S770.194286 620.982857 724.114286 620.982857H643.657143c13.165714-10.971429 24.868571-24.137143 33.645714-38.765714zM867.474286 451.291429c-10.24 0-18.285714 8.045714-18.285715 18.285714s8.045714 18.285714 18.285715 18.285714c26.331429 0 47.542857 21.211429 47.542857 47.542857s-21.211429 47.542857-47.542857 47.542857c-10.24 0-18.285714 8.045714-18.285715 18.285715s8.045714 18.285714 18.285715 18.285714c46.08 0 84.114286-38.034286 84.114285-84.114286s-38.034286-84.114286-84.114285-84.114285z" fill="#83d8ff" p-id="3331" data-spm-anchor-id="a313x.7781069.0.i33" class=""></path></svg>