<?xml version="1.0" standalone="no"?><!DOCTYPE svg PUBLIC "-//W3C//DTD SVG 1.1//EN" "http://www.w3.org/Graphics/SVG/1.1/DTD/svg11.dtd"><svg t="1680767727115" class="icon" viewBox="0 0 1024 1024" version="1.1" xmlns="http://www.w3.org/2000/svg" p-id="4142" xmlns:xlink="http://www.w3.org/1999/xlink" width="200" height="200"><path d="M636.342857 837.485714c0 20.48 13.165714 36.571429 29.257143 36.571429s29.257143-16.091429 29.257143-36.571429-29.257143-51.2-29.257143-51.2-29.257143 30.72-29.257143 51.2zM343.771429 837.485714c0 20.48 13.165714 36.571429 29.257142 36.571429s29.257143-16.091429 29.257143-36.571429-29.257143-51.2-29.257143-51.2-29.257143 30.72-29.257142 51.2zM731.428571 296.228571c-5.12 0-9.508571 0-14.628571 0.731429-32.182857-85.577143-114.834286-147.017143-212.114286-147.017143-125.074286 0-226.742857 101.668571-226.742857 226.742857 0 8.777143 0.731429 17.554286 1.462857 26.331429-12.434286-2.925714-24.868571-4.388571-38.034285-4.388572-97.28 0-175.542857 78.262857-175.542858 175.542858s78.262857 175.542857 175.542858 175.542857h490.057142c125.074286 0 226.742857-101.668571 226.742858-226.742857s-101.668571-226.742857-226.742858-226.742858zM557.348571 808.228571c-2.194286-3.657143-6.582857-4.388571-10.24-2.925714l-20.48 11.702857v-24.137143c0-3.657143-3.657143-7.314286-7.314285-7.314285s-7.314286 3.657143-7.314286 7.314285v24.137143l-20.48-11.702857c-3.657143-2.194286-8.045714-0.731429-10.24 2.925714-2.194286 3.657143-0.731429 8.045714 2.925714 10.24l20.48 11.702858-20.48 11.702857c-3.657143 2.194286-4.388571 6.582857-2.925714 10.24 2.194286 3.657143 6.582857 4.388571 10.24 2.925714l20.48-11.702857v24.137143c0 3.657143 3.657143 7.314286 7.314286 7.314285s7.314286-3.657143 7.314285-7.314285v-24.137143l20.48 11.702857c3.657143 2.194286 8.045714 0.731429 10.24-2.925714 2.194286-3.657143 0.731429-8.045714-2.925714-10.24l-20.48-11.702857 20.48-11.702858c3.657143-2.194286 5.12-6.582857 2.925714-10.24z" fill="#83d8ff" p-id="4143"></path></svg>