<?xml version="1.0" standalone="no"?><!DOCTYPE svg PUBLIC "-//W3C//DTD SVG 1.1//EN" "http://www.w3.org/Graphics/SVG/1.1/DTD/svg11.dtd"><svg t="1680768183938" class="icon" viewBox="0 0 1024 1024" version="1.1" xmlns="http://www.w3.org/2000/svg" p-id="4368" xmlns:xlink="http://www.w3.org/1999/xlink" width="200" height="200"><path d="M113.371429 281.6m-36.571429 0a36.571429 36.571429 0 1 0 73.142857 0 36.571429 36.571429 0 1 0-73.142857 0Z" fill="#83d8ff" p-id="4369"></path><path d="M113.371429 793.6m-36.571429 0a36.571429 36.571429 0 1 0 73.142857 0 36.571429 36.571429 0 1 0-73.142857 0Z" fill="#83d8ff" p-id="4370"></path><path d="M259.657143 793.6m-36.571429 0a36.571429 36.571429 0 1 0 73.142857 0 36.571429 36.571429 0 1 0-73.142857 0Z" fill="#83d8ff" p-id="4371"></path><path d="M405.942857 793.6m-36.571428 0a36.571429 36.571429 0 1 0 73.142857 0 36.571429 36.571429 0 1 0-73.142857 0Z" fill="#83d8ff" p-id="4372"></path><path d="M786.285714 486.4c-16.091429 0-29.257143 13.165714-29.257143 29.257143s13.165714 29.257143 29.257143 29.257143c88.502857 0 160.914286-72.411429 160.914286-160.914286s-72.411429-160.914286-160.914286-160.914286c-16.091429 0-29.257143 13.165714-29.257143 29.257143s13.165714 29.257143 29.257143 29.257143c56.32 0 102.4 46.08 102.4 102.4s-46.08 102.4-102.4 102.4zM815.542857 596.114286h-716.8c-16.091429 0-29.257143 13.165714-29.257143 29.257143s13.165714 29.257143 29.257143 29.257142h716.8c44.617143 0 80.457143 35.84 80.457143 80.457143s-35.84 80.457143-80.457143 80.457143-80.457143-35.84-80.457143-80.457143c0-16.091429-13.165714-29.257143-29.257143-29.257143s-29.257143 13.165714-29.257142 29.257143c0 76.8 62.171429 138.971429 138.971428 138.971429s138.971429-62.171429 138.971429-138.971429-62.171429-138.971429-138.971429-138.971428zM98.742857 471.771429h475.428572c88.502857 0 160.914286-72.411429 160.914285-160.914286s-72.411429-160.914286-160.914285-160.914286-160.914286 72.411429-160.914286 160.914286c0 16.091429 13.165714 29.257143 29.257143 29.257143s29.257143-13.165714 29.257143-29.257143c0-56.32 46.08-102.4 102.4-102.4s102.4 46.08 102.4 102.4-46.08 102.4-102.4 102.4h-475.428572c-16.091429 0-29.257143 13.165714-29.257143 29.257143s13.165714 29.257143 29.257143 29.257143z" fill="#83d8ff" p-id="4373"></path></svg>