<?xml version="1.0" standalone="no"?><!DOCTYPE svg PUBLIC "-//W3C//DTD SVG 1.1//EN" "http://www.w3.org/Graphics/SVG/1.1/DTD/svg11.dtd"><svg t="1680768151050" class="icon" viewBox="0 0 1024 1024" version="1.1" xmlns="http://www.w3.org/2000/svg" p-id="3730" xmlns:xlink="http://www.w3.org/1999/xlink" width="200" height="200"><path d="M190.171429 186.514286m-36.571429 0a36.571429 36.571429 0 1 0 73.142857 0 36.571429 36.571429 0 1 0-73.142857 0Z" fill="#83d8ff" p-id="3731"></path><path d="M519.314286 186.514286m-36.571429 0a36.571429 36.571429 0 1 0 73.142857 0 36.571429 36.571429 0 1 0-73.142857 0Z" fill="#83d8ff" p-id="3732"></path><path d="M848.457143 186.514286m-36.571429 0a36.571429 36.571429 0 1 0 73.142857 0 36.571429 36.571429 0 1 0-73.142857 0Z" fill="#83d8ff" p-id="3733"></path><path d="M190.171429 837.485714m-36.571429 0a36.571429 36.571429 0 1 0 73.142857 0 36.571429 36.571429 0 1 0-73.142857 0Z" fill="#83d8ff" p-id="3734"></path><path d="M519.314286 837.485714m-36.571429 0a36.571429 36.571429 0 1 0 73.142857 0 36.571429 36.571429 0 1 0-73.142857 0Z" fill="#83d8ff" p-id="3735"></path><path d="M848.457143 837.485714m-36.571429 0a36.571429 36.571429 0 1 0 73.142857 0 36.571429 36.571429 0 1 0-73.142857 0Z" fill="#83d8ff" p-id="3736"></path><path d="M943.542857 508.342857c0-72.411429-34.377143-145.554286-89.234286-190.171428-43.885714-35.84-95.817143-49.737143-147.017142-39.497143C637.074286 292.571429 572.708571 348.16 512 448.365714 451.291429 348.16 386.925714 292.571429 316.708571 278.674286c-51.2-10.24-103.862857 3.657143-147.017142 39.497143-54.857143 44.617143-89.234286 117.76-89.234286 190.171428s34.377143 145.554286 89.234286 190.171429c34.377143 27.794286 73.874286 42.422857 114.102857 42.422857 10.971429 0 21.942857-0.731429 32.914285-2.925714C386.925714 724.114286 451.291429 668.525714 512 568.32 572.708571 668.525714 637.074286 724.114286 707.291429 738.742857c51.2 10.24 103.862857-3.657143 147.017142-39.497143 54.857143-45.348571 89.234286-118.491429 89.234286-190.902857zM305.005714 680.96c-43.154286 8.777143-77.531429-10.24-98.742857-27.062857C165.302857 619.52 138.971429 563.2 138.971429 508.342857s26.331429-111.177143 67.291428-144.822857c17.554286-13.897143 43.885714-29.257143 76.8-29.257143 7.314286 0 13.897143 0.731429 21.942857 2.194286 59.245714 11.702857 117.76 69.485714 173.348572 172.617143-55.588571 101.668571-114.102857 160.182857-173.348572 171.885714z m512.731429-27.794286c-21.211429 17.554286-55.588571 35.84-98.742857 27.062857-59.245714-11.702857-117.76-69.485714-173.348572-172.617142 56.32-102.4 114.834286-160.914286 173.348572-172.617143 43.154286-8.777143 77.531429 10.24 98.742857 27.062857 40.96 33.645714 67.291429 90.697143 67.291428 144.822857s-26.331429 112.64-67.291428 146.285714z" fill="#83d8ff" p-id="3737"></path></svg>