<?xml version="1.0" standalone="no"?><!DOCTYPE svg PUBLIC "-//W3C//DTD SVG 1.1//EN" "http://www.w3.org/Graphics/SVG/1.1/DTD/svg11.dtd"><svg t="1680767743211" class="icon" viewBox="0 0 1024 1024" version="1.1" xmlns="http://www.w3.org/2000/svg" p-id="4597" xmlns:xlink="http://www.w3.org/1999/xlink" width="200" height="200"><path d="M731.428571 296.228571c-5.12 0-9.508571 0-14.628571 0.731429-32.182857-85.577143-114.834286-147.017143-212.114286-147.017143-125.074286 0-226.742857 101.668571-226.742857 226.742857 0 8.777143 0.731429 17.554286 1.462857 26.331429-12.434286-2.925714-24.868571-4.388571-38.034285-4.388572-97.28 0-175.542857 78.262857-175.542858 175.542858s78.262857 175.542857 175.542858 175.542857h490.057142c125.074286 0 226.742857-101.668571 226.742858-226.742857s-101.668571-226.742857-226.742858-226.742858zM486.4 837.485714c0 20.48 13.165714 36.571429 29.257143 36.571429s29.257143-16.091429 29.257143-36.571429-29.257143-51.2-29.257143-51.2-29.257143 30.72-29.257143 51.2zM384 837.485714c0 20.48 13.165714 36.571429 29.257143 36.571429s29.257143-16.091429 29.257143-36.571429-29.257143-51.2-29.257143-51.2-29.257143 30.72-29.257143 51.2zM588.8 837.485714c0 20.48 13.165714 36.571429 29.257143 36.571429s29.257143-16.091429 29.257143-36.571429-29.257143-51.2-29.257143-51.2-29.257143 30.72-29.257143 51.2z" fill="#83d8ff" p-id="4598" data-spm-anchor-id="a313x.7781069.0.i53" class="selected"></path><path d="M510.537143 149.942857L351.085714 539.794286h185.782857l-106.057142 334.262857 238.445714-445.44h-212.114286z" fill="#FFC931" opacity=".9" p-id="4599"></path></svg>