<?xml version="1.0" standalone="no"?><!DOCTYPE svg PUBLIC "-//W3C//DTD SVG 1.1//EN" "http://www.w3.org/Graphics/SVG/1.1/DTD/svg11.dtd"><svg t="1680768089126" class="icon" viewBox="0 0 1024 1024" version="1.1" xmlns="http://www.w3.org/2000/svg" p-id="2745" id="mx_n_1680768089127" xmlns:xlink="http://www.w3.org/1999/xlink" width="200" height="200"><path d="M877.714286 212.114286c0-92.891429-179.931429-141.165714-358.4-141.165715S160.914286 119.222857 160.914286 212.114286s179.931429 141.165714 358.4 141.165714c90.697143 0 182.125714-12.434286 249.417143-37.302857-0.731429 2.194286-0.731429 4.388571-0.731429 6.582857 0 26.331429-105.325714 75.337143-277.942857 75.337143s-277.942857-49.005714-277.942857-75.337143c0-16.091429-13.165714-29.257143-29.257143-29.257143s-29.257143 13.165714-29.257143 29.257143c0 87.771429 168.96 133.851429 336.457143 133.851429 63.634286 0 128-6.582857 182.857143-19.748572v2.925714c0 17.554286-81.92 60.708571-234.057143 60.708572s-234.057143-43.154286-234.057143-60.708572c0-16.091429-13.165714-29.257143-29.257143-29.257142s-29.257143 13.165714-29.257143 29.257142c0 81.92 151.405714 119.222857 292.571429 119.222858s292.571429-37.302857 292.571428-119.222858c0-7.314286-2.925714-13.897143-6.582857-18.285714 61.44-22.674286 101.668571-55.588571 101.668572-98.742857 0-10.971429-5.851429-20.48-15.36-25.6 40.96-21.942857 66.56-50.468571 66.56-84.845714zM519.314286 294.765714c-193.828571 0-299.885714-54.857143-299.885715-82.651428s106.057143-82.651429 299.885715-82.651429 299.885714 54.857143 299.885714 82.651429-106.057143 82.651429-299.885714 82.651428z" fill="#83d8ff" p-id="2746"></path><path d="M694.857143 670.72c0-16.091429-13.165714-29.257143-29.257143-29.257143s-28.525714 12.434286-29.257143 27.794286c-6.582857 11.702857-64.365714 39.497143-168.228571 39.497143s-161.645714-27.794286-168.228572-39.497143c0-8.777143-4.388571-16.091429-10.971428-21.211429 45.348571 10.971429 98.011429 16.822857 149.942857 16.822857 130.194286 0 270.628571-35.108571 270.628571-111.177142 0-16.091429-13.165714-29.257143-29.257143-29.257143s-29.257143 13.165714-29.257142 29.257143c-2.194286 16.091429-77.531429 53.394286-212.114286 53.394285s-209.92-37.302857-212.114286-52.662857c0-16.091429-13.165714-29.257143-29.257143-29.257143s-29.257143 13.165714-29.257143 29.257143c0 40.96 40.228571 70.217143 98.011429 88.502857-13.897143 0.731429-24.868571 13.165714-24.868571 27.794286 0 66.56 117.76 96.548571 226.742857 96.548571s226.742857-29.988571 226.742857-96.548571z" fill="#83d8ff" p-id="2747"></path><path d="M716.8 849.92c-14.628571 0-26.331429 10.24-28.525714 24.137143-8.777143 8.045714-46.08 20.48-103.131429 20.48s-93.622857-13.165714-103.131428-20.48l-2.194286-6.582857c13.165714 0.731429 25.6 1.462857 38.765714 1.462857 90.697143 0 182.857143-24.868571 182.857143-81.92 0-16.091429-13.165714-29.257143-29.257143-29.257143-14.628571 0-27.062857 10.971429-29.257143 25.6-8.777143 9.508571-53.394286 26.331429-124.342857 26.331429s-115.565714-16.822857-124.342857-26.331429c-1.462857-14.628571-13.897143-25.6-29.257143-25.6-16.091429 0-29.257143 13.165714-29.257143 29.257143 0 37.302857 40.96 61.44 94.354286 73.142857-4.388571 5.12-6.582857 11.702857-6.582857 18.285714 0 54.857143 87.04 73.874286 160.914286 73.874286s160.914286-19.748571 160.914285-73.874286c0.731429-15.36-12.434286-28.525714-28.525714-28.525714z" fill="#83d8ff" p-id="2748"></path></svg>