<?xml version="1.0" standalone="no"?><!DOCTYPE svg PUBLIC "-//W3C//DTD SVG 1.1//EN" "http://www.w3.org/Graphics/SVG/1.1/DTD/svg11.dtd"><svg t="1680768130114" class="icon" viewBox="0 0 1024 1024" version="1.1" xmlns="http://www.w3.org/2000/svg" p-id="3308" xmlns:xlink="http://www.w3.org/1999/xlink" width="200" height="200"><path d="M841.142857 524.434286V512c0-182.125714-147.748571-329.142857-329.142857-329.142857-59.977143 0-116.297143 16.091429-165.302857 44.617143 35.108571-63.634286 85.577143-117.028571 146.285714-156.525715C313.051429 125.805714 182.857143 292.571429 182.857143 490.057143v21.211428c0 48.274286 10.24 93.622857 29.257143 135.314286 51.2 114.834286 166.765714 194.56 299.885714 194.56 13.165714 0 25.6-0.731429 38.765714-2.194286 46.08-5.12 88.502857-20.48 126.537143-42.422857h-0.731428c-35.108571 63.634286-85.577143 117.028571-146.285715 156.525715C710.948571 898.194286 841.142857 731.428571 841.142857 533.942857v-10.971428 1.462857zM512 621.714286c-60.708571 0-109.714286-49.005714-109.714286-109.714286s49.005714-109.714286 109.714286-109.714286 109.714286 49.005714 109.714286 109.714286-49.005714 109.714286-109.714286 109.714286z" fill="#83d8ff" p-id="3309"></path></svg>