<?xml version="1.0" standalone="no"?><!DOCTYPE svg PUBLIC "-//W3C//DTD SVG 1.1//EN" "http://www.w3.org/Graphics/SVG/1.1/DTD/svg11.dtd"><svg t="1680768218051" class="icon" viewBox="0 0 1024 1024" version="1.1" xmlns="http://www.w3.org/2000/svg" p-id="4950" xmlns:xlink="http://www.w3.org/1999/xlink" width="200" height="200"><path d="M113.371429 186.514286m-36.571429 0a36.571429 36.571429 0 1 0 73.142857 0 36.571429 36.571429 0 1 0-73.142857 0Z" fill="#83d8ff" p-id="4951"></path><path d="M378.88 186.514286m-36.571429 0a36.571429 36.571429 0 1 0 73.142858 0 36.571429 36.571429 0 1 0-73.142858 0Z" fill="#83d8ff" p-id="4952"></path><path d="M247.222857 405.942857m-36.571428 0a36.571429 36.571429 0 1 0 73.142857 0 36.571429 36.571429 0 1 0-73.142857 0Z" fill="#83d8ff" p-id="4953"></path><path d="M645.12 186.514286m-36.571429 0a36.571429 36.571429 0 1 0 73.142858 0 36.571429 36.571429 0 1 0-73.142858 0Z" fill="#83d8ff" p-id="4954"></path><path d="M513.462857 405.942857m-36.571428 0a36.571429 36.571429 0 1 0 73.142857 0 36.571429 36.571429 0 1 0-73.142857 0Z" fill="#83d8ff" p-id="4955"></path><path d="M910.628571 186.514286m-36.571428 0a36.571429 36.571429 0 1 0 73.142857 0 36.571429 36.571429 0 1 0-73.142857 0Z" fill="#83d8ff" p-id="4956"></path><path d="M778.971429 405.942857m-36.571429 0a36.571429 36.571429 0 1 0 73.142857 0 36.571429 36.571429 0 1 0-73.142857 0Z" fill="#83d8ff" p-id="4957"></path><path d="M910.628571 815.542857h-804.571428c-16.091429 0-29.257143 13.165714-29.257143 29.257143s13.165714 29.257143 29.257143 29.257143h804.571428c16.091429 0 29.257143-13.165714 29.257143-29.257143s-13.165714-29.257143-29.257143-29.257143zM910.628571 593.92h-804.571428c-16.091429 0-29.257143 13.165714-29.257143 29.257143s13.165714 29.257143 29.257143 29.257143h804.571428c16.091429 0 29.257143-13.165714 29.257143-29.257143s-13.165714-29.257143-29.257143-29.257143z" fill="#83d8ff" p-id="4958"></path></svg>